<?xml version="1.0" standalone="no"?>
<!DOCTYPE svg PUBLIC "-//W3C//DTD SVG 1.1//EN" "http://www.w3.org/Graphics/SVG/1.1/DTD/svg11.dtd" >
<svg xmlns="http://www.w3.org/2000/svg" xmlns:xlink="http://www.w3.org/1999/xlink" version="1.1">
<metadata></metadata>
<defs>
<font id="saranaigamebold" horiz-adv-x="1460" >
<font-face units-per-em="2048" ascent="2048" descent="0" />
<missing-glyph horiz-adv-x="1044" />
<glyph horiz-adv-x="0" />
<glyph unicode="&#xd;" horiz-adv-x="0" />
<glyph horiz-adv-x="0" />
<glyph horiz-adv-x="0" />
<glyph unicode=" "  horiz-adv-x="1044" />
<glyph unicode="&#x09;" horiz-adv-x="1044" />
<glyph unicode="&#xa0;" horiz-adv-x="1044" />
<glyph unicode="!" horiz-adv-x="387" d="M0 154q0 63 45 108q48 43 109 43q29 0 57.5 -10t50.5 -33q23 -23 33 -51.5t10 -56.5q0 -61 -43 -109q-45 -45 -108 -45t-109 45q-45 45 -45 109zM0 494v991q0 66 44 109.5t110 43.5q63 0 107 -44t44 -109v-991q0 -66 -44 -110t-107 -44q-66 0 -110 44t-44 110z" />
<glyph unicode="&#x22;" horiz-adv-x="972" d="M0 1446q0 37 14.5 72.5t40.5 62.5q59 55 135 55q80 0 136 -55q8 -9 20 -25q27 -23 38 -61.5t9 -100t-19.5 -148.5t-47.5 -204q-8 -27 -30 -42t-48 -15q-12 0 -21 2q-31 8 -48 37t-7 59q14 53 24.5 96.5t16.5 77.5q-6 -2 -23 -2q-76 0 -135 56q-55 59 -55 135zM496 1446 q0 37 14 72.5t41 62.5q59 55 135 55q80 0 135 -55q9 -9 21 -25q27 -23 39 -61.5t9 -100t-20.5 -148.5t-48.5 -204q-8 -27 -28.5 -42t-49.5 -15q-12 0 -20 2q-31 8 -48.5 37t-6.5 59q14 53 24 96.5t17 77.5q-6 -2 -23 -2q-76 0 -135 56q-55 59 -55 135z" />
<glyph unicode="#" horiz-adv-x="1005" d="M0 670q0 37 24.5 62.5t59.5 25.5h752q37 0 62.5 -25.5t25.5 -62.5q0 -35 -26 -60.5t-62 -25.5h-752q-35 0 -59.5 25.5t-24.5 60.5zM0 1049q0 35 24.5 60.5t59.5 25.5h752q39 0 63.5 -25.5t24.5 -60.5q0 -37 -26 -62.5t-62 -25.5h-752q-35 0 -59.5 25.5t-24.5 62.5z M184 483v752q0 35 25.5 60.5t62.5 25.5q35 0 60.5 -25.5t25.5 -60.5v-752q0 -35 -25.5 -60.5t-60.5 -25.5q-37 0 -62.5 26t-25.5 60zM563 483v752q0 35 25.5 60.5t60.5 25.5t60.5 -25.5t25.5 -60.5v-752q0 -35 -25.5 -60.5t-60.5 -25.5t-60.5 26t-25.5 60z" />
<glyph unicode="$" horiz-adv-x="1470" d="M-2 176q0 61 44 105.5t108 44.5h399v327q-123 4 -235.5 30t-196.5 103q-119 113 -119 316q0 94 42 179t116.5 153.5t175 115.5t217.5 66v115q0 43 12 64.5t34.5 30.5t51.5 9h64h62.5t52 -9t34.5 -30.5t12 -64.5v-105h363q63 0 108.5 -44t45.5 -105q0 -63 -45.5 -107.5 t-108.5 -44.5h-363v-371q117 -2 222.5 -25.5t183.5 -99.5q111 -102 111 -278q0 -94 -39 -177t-107.5 -150.5t-163 -115t-207.5 -67.5v-119q0 -43 -12 -67.5t-34.5 -37t-52.5 -15.5t-62 -3q-35 0 -64 3t-51.5 15.5t-34.5 37t-12 67.5v103h-399q-63 0 -107.5 44t-44.5 107z M303 1102q0 -72 29 -101q29 -27 87 -36t130 -13v357q-57 -14 -102.5 -39t-77 -53.5t-49 -58.5t-17.5 -56zM872 350q98 31 153.5 86.5t55.5 114.5q0 16 -3 35.5t-13 29.5q-23 20 -75 27.5t-118 11.5v-305z" />
<glyph unicode="%" horiz-adv-x="1720" d="M2 162.5q-8 58.5 25 93.5l1355 1356q35 35 93.5 25.5t105.5 -56.5t56.5 -105.5t-25.5 -93.5l-1356 -1355q-35 -33 -93.5 -25t-105.5 55t-55 105.5zM20 1196v111q0 63 30 120.5t80 98.5t117.5 65.5t145.5 24.5h33h2h2q76 0 143.5 -24.5t118.5 -65.5t80 -98.5t29 -120.5 v-111q0 -63 -29 -119.5t-80 -97.5t-118.5 -65.5t-143.5 -24.5h-2h-2h-33q-78 0 -145.5 24.5t-117.5 65.5t-80 97.5t-30 119.5zM258 1212q0 -39 41 -67.5t98 -28.5h25h2q57 0 99 29t42 67v80q0 39 -42 66.5t-99 27.5h-2h-25q-57 0 -98 -27.5t-41 -66.5v-80zM858 328v110 q0 63 28.5 119.5t80 98.5t119 67t145.5 25h31h2h2q78 0 145.5 -25t118.5 -67t79.5 -98t28.5 -120v-110q0 -63 -28.5 -119.5t-79.5 -98.5t-119 -67t-145 -25l-2 2l-2 -2h-31q-78 0 -145.5 25t-119 67t-80 98t-28.5 120zM1094 344q0 -39 42 -67.5t99 -28.5h22h3h2 q57 0 99 28.5t42 67.5v80q0 39 -42 66.5t-99 27.5h-2h-3h-22q-57 0 -99 -27.5t-42 -66.5v-80z" />
<glyph unicode="&#x26;" horiz-adv-x="1441" d="M0 500q0 86 24.5 151.5t66.5 117.5t95.5 91t110.5 70q-80 113 -103.5 182.5t-23.5 116.5q0 199 124 304t359 105q63 0 113.5 -13t88.5 -34.5t66.5 -48t47.5 -51.5q33 -43 51 -90t26.5 -92t7.5 -83t-7 -65q-35 -123 -115 -201.5t-176 -132.5q29 -29 58.5 -60.5t64.5 -66.5 l75 -75q12 39 13 43q12 57 62 88.5t108 19.5q59 -12 91 -61t19 -109q-18 -90 -65 -194q57 -53 92 -84t37 -33q45 -39 49 -97.5t-35 -103.5q-41 -47 -99.5 -51t-103.5 37q-4 2 -29.5 25.5t-70.5 64.5q-72 -74 -167 -122t-218 -48q-143 0 -246.5 26.5t-174.5 69.5t-114 97.5 t-65.5 109.5t-29.5 107.5t-7 89.5zM287 500q0 -27 5 -63t37.5 -69.5t104.5 -57t203 -23.5q53 0 97 21.5t79 56.5q-37 35 -74 71.5t-75 75.5q-53 53 -97.5 100t-83.5 90q-104 -49 -150 -92t-46 -110zM457 1231q0 -4 3 -14.5t14 -32t32.5 -54t56.5 -79.5q82 41 133.5 82 t71.5 100q0 14 -7 42t-26 50q-10 10 -27.5 18.5t-54.5 8.5q-74 0 -113.5 -9.5t-58 -27t-21.5 -38.5t-3 -46z" />
<glyph unicode="'" horiz-adv-x="473" d="M-2 1448q0 37 13.5 72.5t39.5 62.5q59 55 135 55q80 0 136 -55q8 -8 20 -24q27 -23 39 -62t9 -100.5t-20.5 -148.5t-47.5 -204q-8 -27 -29 -42t-49 -15q-12 0 -21 2q-31 8 -48 37t-7 59q14 53 24.5 96.5t16.5 78.5q-6 -2 -23 -3q-76 0 -135 56q-53 57 -53 135z" />
<glyph unicode="(" horiz-adv-x="567" d="M0 514v598q0 369 242 506q31 16 62.5 19t62 -5t56.5 -27.5t42 -50.5q33 -59 14.5 -123.5t-78.5 -97.5q-6 -4 -19 -14t-25.5 -33.5t-21.5 -64.5t-9 -109v-598q0 -172 67 -215q55 -39 68.5 -104.5t-25.5 -122.5q-23 -35 -58.5 -53.5t-76.5 -18.5q-23 0 -46.5 6t-43.5 23 q-211 143 -211 485z" />
<glyph unicode=")" horiz-adv-x="567" d="M7.5 1430.5q-17.5 64.5 12.5 123.5q16 31 42 50.5t57 27.5t62.5 5t62.5 -19q242 -137 241 -506v-598q0 -342 -211 -485q-41 -29 -90 -29q-41 0 -76.5 18.5t-58.5 53.5q-37 57 -25.5 122.5t68.5 104.5q66 43 66 215v598q0 68 -9.5 109t-21.5 64.5t-24.5 33.5t-18.5 14 q-59 33 -76.5 97.5z" />
<glyph unicode="*" horiz-adv-x="1335" d="M20 803q0 47 34 81t81 34h221l-155 155q-35 35 -35 82t35 82t82 35t82 -35l155 -156v222q0 47 34 81.5t83 34.5q47 0 81 -34.5t34 -81.5v-222l155 156q35 35 82 35t82 -35t35 -82t-35 -82l-156 -155h222q47 0 81.5 -34t34.5 -81q0 -49 -34.5 -83t-81.5 -34h-222l156 -156 q35 -35 35 -82t-35 -81q-35 -35 -82 -35t-82 35l-155 155v-221q0 -47 -34 -81t-81 -34q-49 0 -83 34t-34 81v221l-155 -155q-35 -35 -82 -35t-82 35t-35 82t35 81l155 156h-221q-47 0 -81 34t-34 83z" />
<glyph unicode="+" horiz-adv-x="1720" d="M0 850q0 66 45 110t109 44h512v512q0 63 45 108t108 45t108.5 -45t45.5 -108v-512h512q63 0 108 -44.5t45 -109.5q0 -63 -45 -108.5t-108 -45.5h-512v-542q0 -63 -45 -108.5t-109 -45.5q-63 0 -108 45t-45 109v542h-512q-63 0 -108.5 45t-45.5 109z" />
<glyph unicode="," horiz-adv-x="473" d="M-2 213q0 82 53 135q59 55 135 55q80 0 136 -55q8 -8 20 -24q27 -23 39 -61t9 -99.5t-20.5 -148.5t-47.5 -203q-8 -27 -29 -42.5t-49 -15.5q-12 0 -21 2q-31 10 -48 38t-7 61q14 53 24.5 94t16.5 76q-4 0 -10 -1t-13 -1q-76 0 -135 55q-53 57 -53 135z" />
<glyph unicode="-" horiz-adv-x="1396" d="M0 858q0 66 45 110t109 44h540h467q63 0 108.5 -44t45.5 -110q0 -63 -45 -108t-109 -45h-473h-534q-63 0 -108.5 45t-45.5 108z" />
<glyph unicode="." horiz-adv-x="471" d="M-6 213q0 41 13 77t42 64q57 58 141 58q82 0 140 -58q59 -59 59 -141q0 -80 -59 -139q-29 -29 -65 -44.5t-75 -15.5q-82 0 -141 60q-29 29 -42 64.5t-13 74.5z" />
<glyph unicode="/" horiz-adv-x="1720" />
<glyph unicode="0" horiz-adv-x="1386" d="M0 537v565q0 111 51 208t139.5 170.5t206 115.5t250.5 42h6h4q133 0 251 -42t206 -115.5t139.5 -171t51.5 -207.5v-565q0 -111 -51.5 -208.5t-139.5 -171t-205.5 -115.5t-251.5 -42h-4h-4h-2q-133 0 -250.5 42t-206 115.5t-139.5 171t-51 208.5zM307 537q0 -47 27.5 -89 t74 -73t108 -49.5t130.5 -18.5h6h4q70 0 131.5 18.5t107.5 49.5t73.5 72.5t27.5 89.5v565q0 47 -27.5 89t-73.5 72.5t-107.5 49t-131.5 18.5h-4h-4q-70 0 -132 -18.5t-108.5 -49t-74 -72.5t-27.5 -89v-565z" />
<glyph unicode="1" horiz-adv-x="823" d="M2 1049.5q0 62.5 43 107.5l436 436q33 33 78 42.5t88 -9.5q43 -16 68.5 -55t25.5 -86v-1331q0 -66 -44 -110t-107 -44q-66 0 -110 44t-44 110v962l-174 -176q-47 -45 -109.5 -45t-107.5 45q-43 47 -43 109.5z" />
<glyph unicode="2" horiz-adv-x="1441" d="M0 1102q0 111 51 208t139.5 170.5t206 115.5t250.5 42h60h4h2q133 0 250.5 -42t205.5 -115.5t139.5 -171t51.5 -207.5q0 -158 -143.5 -338t-446.5 -399q-23 -14 -42 -28.5t-40 -29.5h518q66 0 110 -45t44 -108t-44 -108.5t-110 -45.5h-1052q-53 0 -94.5 31.5t-55.5 83.5 q-10 51 9.5 99t66.5 73l45 25q45 26 116.5 71t164 104.5t186.5 126.5q168 123 261 212t137 148.5t53.5 90.5t9.5 37q0 47 -28 89t-74 72.5t-107.5 49t-130.5 18.5h-2h-4h-60q-70 0 -131 -18.5t-107.5 -49t-74 -72.5t-27.5 -89q0 -63 -45 -108.5t-108 -45.5t-108.5 45 t-45.5 109z" />
<glyph unicode="3" horiz-adv-x="1370" d="M2 335q2 30 15.5 57.5t35.5 47.5q47 41 111.5 37t105.5 -53q47 -53 126 -85t169 -32h68h2h4q70 0 132.5 18.5t108.5 50.5t73.5 74t27.5 89q0 25 -6 37t-17 22q-29 29 -83 45t-103 21q-23 -2 -40 -2h-27h-13q-66 2 -109.5 48t-41.5 109q0 2 1 3t1 3q0 61 43 105.5 t106 46.5h27.5t52.5 -2q49 4 103.5 20.5t82.5 44.5q10 10 16.5 22.5t6.5 37.5q0 47 -27.5 89t-73.5 73.5t-108.5 50t-132.5 18.5h-4h-2h-68q-90 0 -169 -31.5t-126 -85.5q-47 -53 -116 -53q-57 0 -101 37q-23 20 -36 48t-15 57.5t6 58.5t29 53q92 104 231.5 163.5 t296.5 59.5h68h2h4q135 0 253 -42t206 -115.5t139 -172t51 -208.5q0 -82 -28.5 -154t-85.5 -127q57 -55 85.5 -126.5t28.5 -153.5q0 -111 -51 -209.5t-139 -172t-206 -115.5t-253 -42h-4h-2h-68q-158 0 -297 59.5t-231 163.5q-20 25 -28.5 53.5t-6.5 58.5z" />
<glyph unicode="4" horiz-adv-x="1435" d="M3 618.5q7 45.5 38 79.5l825 891q35 35 80 45.5t90 -6.5q45 -18 72 -57t27 -86v-383v-354h65q66 0 110 -45.5t44 -108.5q0 -66 -44 -111t-110 -45h-65v-284q0 -63 -45.5 -108.5t-108.5 -45.5q-66 0 -111 45t-45 109v284h-671q-47 0 -85 25.5t-57 68.5q-16 41 -9 86.5z M508 748h317v342z" />
<glyph unicode="5" horiz-adv-x="1376" d="M0 825v660q0 63 45 108t109 45h936q63 0 108 -45t45 -108q0 -66 -44 -111t-109 -45h-781v-307q84 16 189.5 27.5t213 6.5t211 -32t185.5 -88q33 -23 65.5 -57.5t59.5 -82.5t44 -111.5t17 -143.5q0 -111 -51 -209.5t-140 -172t-208 -116.5t-254 -43h-2h-4h-68 q-158 0 -297 59.5t-231 163.5q-41 49 -37 112.5t51 106.5q47 41 111.5 37t105.5 -53q47 -53 127 -85t170 -32h68h4h2q70 0 132.5 18.5t109.5 50.5t74.5 74t27.5 89q0 68 -19.5 99.5t-41.5 47.5q-57 43 -153.5 54.5t-202 3t-205 -28t-162.5 -39.5q-35 -10 -72 -4t-66 28 q-63 45 -63 123z" />
<glyph unicode="6" horiz-adv-x="1380" d="M7 965q22 225 145 385q256 326 874 284q66 -4 107 -52t36 -114q-4 -66 -52 -107.5t-113 -37.5q-78 6 -164 3t-169 -19.5t-155 -52t-119 -97.5q-59 -74 -75 -180q76 45 166 70.5t188 25.5q129 0 241.5 -42t197.5 -115.5t134 -171t49 -207.5q0 -111 -49 -209.5t-134 -171 t-197.5 -114.5t-241.5 -42q-98 0 -187.5 24.5t-164 69.5t-132 106.5t-92.5 135.5q-2 2 -6 10q-10 25 -17 50.5t-14 52.5q-78 291 -56 516zM365 537q0 -14 2 -21q4 -12 7 -25.5t7 -25.5q33 -66 112.5 -110t182.5 -44q63 0 119.5 17.5t99.5 48.5t67.5 71.5t24.5 88.5 q0 45 -24.5 86t-67.5 71.5t-99.5 49t-119.5 18.5t-119.5 -18.5t-99.5 -49t-67.5 -71.5t-24.5 -86z" />
<glyph unicode="7" horiz-adv-x="1429" d="M0 1485q0 66 45 109.5t109 43.5l1042 -4q49 -2 89 -31.5t56 -76.5q16 -49 -1 -96.5t-58 -75.5q-6 -4 -52 -41t-112.5 -105.5t-142.5 -169t-140.5 -232.5t-106.5 -296t-42 -356q0 -63 -45 -108.5t-109 -45.5q-66 0 -109.5 45t-43.5 109q0 203 39 378t101.5 321t140 265 t153.5 209l-659 4q-66 0 -110 45t-44 109z" />
<glyph unicode="8" horiz-adv-x="1318" d="M0 481q0 98 46 184.5t126 151.5q-80 66 -126 152t-46 184q0 102 48 190.5t131 154t196.5 103t242.5 37.5t243 -37.5t197 -103t131 -154t48 -190.5q0 -98 -45 -184t-125 -152q78 -66 124 -151.5t46 -184.5q0 -102 -48 -189t-131 -152.5t-196.5 -102.5t-243.5 -37 q-129 0 -242.5 37t-196.5 102.5t-131 152.5t-48 189zM293 481q0 -33 24.5 -66.5t68.5 -60t103 -44t129 -17.5t129.5 17.5t103.5 44t68.5 60.5t24.5 66q0 33 -23.5 66t-66.5 59.5t-100.5 44t-124.5 19.5h-11h-10q-68 -2 -125 -19.5t-100 -44t-66.5 -59.5t-23.5 -66zM295 1153 q0 -33 23.5 -66.5t66.5 -61.5t102.5 -45t130.5 -17q72 0 131.5 17t102.5 45t67.5 61.5t24.5 66.5t-24.5 67.5t-67.5 61.5t-102.5 44t-131.5 17t-131 -17t-102 -44t-66.5 -61.5t-23.5 -67.5z" />
<glyph unicode="9" horiz-adv-x="1378" d="M0 1102q0 111 49 209t133 170.5t198 114.5t243 42q96 0 185 -24.5t164 -68.5t133 -105.5t93 -134.5q2 -4 4 -9.5t4 -11.5q10 -23 16.5 -46.5t12.5 -47.5q78 -291 57.5 -516t-147.5 -385q-225 -289 -739 -289q-33 0 -66 1t-68 3q-66 4 -107.5 52t-37.5 114t52 107.5 t114 37.5q78 -6 165 -3t170 19.5t154.5 52.5t118.5 97q31 39 48.5 84t27.5 97q-76 -45 -166 -71t-188 -26q-129 0 -243 42t-198 116t-133 171t-49 208zM311 1102q0 -47 24.5 -88t67.5 -72t100 -48t120 -17t119.5 17t99.5 48t67.5 72t24.5 88q0 4 -1 10t-1 10q-4 12 -8 25.5 t-9 26.5q-31 66 -111.5 109.5t-180.5 43.5q-63 0 -120 -18.5t-100 -49t-67.5 -71.5t-24.5 -86z" />
<glyph unicode=":" horiz-adv-x="471" d="M-6 506q0 41 13 76.5t42 64.5q57 58 141 58q82 0 140 -58q29 -29 44 -64.5t15 -76.5q0 -82 -59 -141q-57 -57 -140 -58q-84 0 -141 58q-55 57 -55 141zM-6 1092q0 41 13 76.5t42 64.5q57 57 141 57q82 0 140 -57q29 -29 44 -64.5t15 -76.5q0 -82 -59 -142 q-57 -57 -140 -57q-84 0 -141 57q-55 57 -55 142z" />
<glyph unicode=";" horiz-adv-x="473" d="M-6 1092q0 41 13 76.5t42 64.5q57 57 141 57q82 0 140 -57q29 -29 44 -64.5t15 -76.5q0 -82 -59 -142q-57 -57 -140 -57q-84 0 -141 57q-55 57 -55 142zM-2 520q0 37 13.5 73t39.5 62q59 55 135 56q80 0 136 -56q8 -8 20 -24q27 -23 39 -62t9 -100t-20.5 -148.5 t-47.5 -203.5q-8 -27 -29 -42.5t-49 -15.5q-12 0 -21 2q-31 8 -48 37t-7 60q14 53 24.5 96t16.5 78q-6 -2 -23 -2q-76 0 -135 55q-53 57 -53 135z" />
<glyph unicode="&#x3c;" horiz-adv-x="1105" d="M0 819q0 29 8 47q2 2 2 6l2 5l6 12q2 4 4.5 6t4.5 6l4 4q2 4 8 10l2 5q4 2 6 4t6 4l2 2q4 4 7.5 5t7.5 5l745 680q51 29 106.5 13.5t84.5 -64.5q29 -51 14.5 -106.5t-66.5 -84.5l-612 -559l612 -559q51 -29 65.5 -84t-13.5 -106q-29 -49 -84.5 -64.5t-106.5 12.5 l-745 680q-12 8 -15 11q-2 0 -2 2q-4 2 -6 4t-6 4q0 2 -2 4q-6 6 -8 10l-4 4q-2 4 -4.5 6t-4.5 7l-6 12q0 2 -2 4q0 4 -2 4q-8 23 -8 49z" />
<glyph unicode="=" horiz-adv-x="1396" d="M0 559q0 63 45 108.5t109 45.5h540h467q63 0 108.5 -45t45.5 -109q0 -66 -45 -109.5t-109 -43.5h-473h-534q-63 0 -108.5 44t-45.5 109zM0 1059q0 63 45 108t109 45h540h467q63 0 108.5 -45t45.5 -108q0 -66 -45 -110t-109 -44h-473h-534q-63 0 -108.5 44t-45.5 110z" />
<glyph unicode="&#x3e;" horiz-adv-x="1105" d="M5 176q16 55 65 84l614 559l-614 559q-49 29 -64.5 84.5t12.5 106.5q29 49 85.5 64.5t105.5 -13.5l745 -680h2q4 -4 7.5 -5t7.5 -5q0 -2 2 -2q4 -2 5 -4t5 -4q4 -4 4 -5q2 -4 3 -5t3 -5q4 0 4 -4q4 -4 9 -12l6 -12q2 -4 2 -5q2 -2 2 -6q8 -18 8 -47q0 -27 -8 -49 q0 -2 -2 -4q0 -2 -2 -4l-6 -12q-4 -8 -9 -13q0 -4 -4 -4q-2 -4 -3 -5t-3 -5l-4 -4q-4 -2 -5 -4t-5 -4l-2 -2q-4 -4 -7 -5.5t-8 -5.5h-2l-745 -680q-49 -29 -105.5 -13.5t-85.5 65.5q-29 51 -13 106z" />
<glyph unicode="?" horiz-adv-x="1441" d="M0 1102q0 111 51 209t139.5 170.5t206 114.5t250.5 42h60h4h2q133 0 250.5 -42t205.5 -115.5t139.5 -171t51.5 -207.5q0 -252 -170 -412q-57 -53 -124 -89t-135.5 -58.5t-134 -34.5t-120.5 -16q0 -63 -45 -107.5t-109 -44.5q-63 0 -107 45t-44 109v147q0 70 47 113 q23 23 53.5 33t60.5 8q31 -2 88.5 0t122 14t129 36.5t109.5 67.5q72 70 72 189q0 47 -28 89t-74 72.5t-107.5 49t-130.5 18.5h-2h-4h-60q-70 0 -131 -18.5t-107.5 -49t-74 -72.5t-27.5 -89q0 -63 -45 -108.5t-108 -45.5t-108.5 45t-45.5 109zM346 154q0 63 45 108 q46 45 109 45t108 -45t45 -108t-45 -109q-45 -45 -108 -45t-109 45q-45 45 -45 109z" />
<glyph unicode="@" horiz-adv-x="2211" d="M0 971q14 162 78.5 312.5t179.5 279.5q117 131 267.5 222t322.5 130q186 43 370.5 20.5t358.5 -110.5q178 -90 286.5 -201t167 -221.5t79 -213t20.5 -177.5q2 -117 -26.5 -229.5t-82 -211t-128 -178.5t-164.5 -129q-127 -68 -260.5 -61.5t-249.5 84.5q-33 23 -45 57 q-47 -16 -90.5 -21.5t-82.5 -5.5q-121 0 -227 46.5t-185 125t-125 185t-46 227.5t46 227.5t125 185.5t185.5 125t226.5 46q250 0 373 -213q6 -12 12.5 -23.5t12.5 -23.5l4 16q14 49 58 73.5t93 10.5t74 -58t10 -93l-204 -719q84 -25 178 26q59 33 110.5 88.5t87 126 t56 151.5t18.5 163q-2 186 -109.5 338.5t-310.5 257.5q-152 76 -299 88t-280 -22t-247 -106.5t-196 -166.5q-74 -84 -127 -192.5t-67.5 -236.5t18.5 -268.5t133 -285.5q211 -309 623 -359q80 -10 150.5 -8t123.5 6q61 6 115 17q51 10 94 -16.5t54 -73.5q12 -49 -14.5 -92.5 t-76.5 -55.5q-4 -2 -87 -15.5t-210 -13.5q-41 0 -82.5 2.5t-87.5 8.5q-262 29 -466.5 145.5t-339.5 314.5q-111 164 -160 339.5t-35 355.5zM664 901q0 -70 26.5 -131t72.5 -107.5t107 -73t131 -26.5q39 0 79 8.5t71 39t50.5 91t19.5 164.5q0 63 -9.5 130t-33 120t-66.5 88 t-111 35q-70 0 -131 -26.5t-107 -72.5t-72.5 -107.5t-26.5 -131.5z" />
<glyph unicode="A" horiz-adv-x="1435" d="M1 149.5q-1 30.5 9 59.5l525 1331q16 45 56 71.5t87 26.5t86 -26.5t55 -71.5l524 -1331q12 -29 11.5 -59.5t-13 -57t-34 -48t-52.5 -34.5q-31 -10 -55 -10q-47 0 -86 25.5t-57 72.5l-121 310h-518l-121 -310q-12 -31 -33.5 -52t-48.5 -32.5t-57.5 -12.5t-59.5 9 q-31 12 -52 34t-32.5 48.5t-12.5 57zM539 715h276l-137 350z" />
<glyph unicode="B" horiz-adv-x="1419" d="M0 152v1314q0 43 22.5 78t57.5 55q43 39 100 39h582q94 0 177 -36.5t144.5 -99t97.5 -147.5t36 -181q0 -74 -21.5 -140.5t-58.5 -124.5q92 -70 146 -174t54 -229q0 -104 -40 -196.5t-108.5 -161t-160.5 -108.5t-197 -40h-679q-63 0 -107.5 44t-44.5 108zM305 305h526 q84 0 142.5 58.5t58.5 142.5q0 86 -58.5 144.5t-142.5 58.5h-59h-10h-457v-404zM305 1014h465q59 0 100 47t41 113t-44 112.5t-105 46.5h-457v-319z" />
<glyph unicode="C" horiz-adv-x="1384" d="M-12 537v565q0 111 50 208t138 170.5t206 115.5t251 42h516q63 0 108.5 -45t45.5 -108t-45.5 -108.5t-108.5 -45.5h-516q-70 0 -131.5 -18.5t-107.5 -49t-73.5 -72.5t-27.5 -89v-565q0 -47 27.5 -89t73.5 -73t107.5 -49.5t131.5 -18.5h516q63 0 108.5 -45t45.5 -108 t-45.5 -108.5t-108.5 -45.5h-516q-133 0 -251 42t-206 115.5t-138 171t-50 208.5z" />
<glyph unicode="D" horiz-adv-x="1398" d="M0 154v1331q0 63 45 108t109 45h516q133 0 250.5 -42t205.5 -115.5t139.5 -171t51.5 -207.5v-565q0 -111 -51.5 -208.5t-139.5 -171t-205.5 -115.5t-250.5 -42h-516q-63 0 -108.5 45t-45.5 109zM307 307h363q70 0 131 18.5t107 49.5t74 72.5t28 89.5v565q0 47 -28 89 t-74 72.5t-107.5 49t-130.5 18.5h-363v-1024z" />
<glyph unicode="E" horiz-adv-x="1318" d="M0 152v1314q0 43 22.5 78t57.5 55q43 39 100 39h903q63 0 108.5 -44t45.5 -107q0 -66 -45 -110t-109 -44h-778v-319h778q63 0 108.5 -45t45.5 -109q0 -63 -45 -107t-109 -44h-59h-10h-709v-404h778q63 0 108.5 -44t45.5 -109q0 -63 -45 -107.5t-109 -44.5h-931 q-63 0 -107.5 44t-44.5 108z" />
<glyph unicode="F" horiz-adv-x="1318" d="M0 152v1314q0 43 22.5 78t57.5 55q43 39 100 39h903q63 0 108.5 -44t45.5 -107q0 -66 -45 -110t-109 -44h-778v-319h778q63 0 108.5 -45.5t45.5 -108.5t-45 -107t-109 -44h-778v-557q0 -63 -44 -107.5t-109 -44.5q-63 0 -107.5 44t-44.5 108z" />
<glyph unicode="G" horiz-adv-x="1398" d="M0 537v565q0 111 51 208t139.5 170.5t206 115.5t250.5 42h516q63 0 108.5 -45t45.5 -108t-45 -108.5t-109 -45.5h-516q-70 0 -131 -18.5t-107.5 -49t-74 -72.5t-27.5 -89v-565q0 -47 27.5 -89t74 -73t108 -49.5t130.5 -18.5h363v283h-224q-66 0 -109.5 44t-43.5 109 q0 63 44 108.5t109 45.5h377q63 0 108.5 -45t45.5 -109v-589q0 -63 -45 -108.5t-109 -45.5h-516q-133 0 -250.5 42t-206 115.5t-139.5 171t-51 208.5z" />
<glyph unicode="H" horiz-adv-x="1406" d="M0 154v1331q0 63 45 108t109 45q66 0 110.5 -45t44.5 -108v-459h707v459q0 63 44 108t109 45q66 0 111 -45t45 -108v-1331q0 -63 -45 -108.5t-111 -45.5t-109.5 45t-43.5 109v563h-707v-563q0 -63 -45 -108.5t-110 -45.5q-63 0 -108.5 45t-45.5 109z" />
<glyph unicode="I" horiz-adv-x="389" d="M0 154v1331q0 63 45.5 108t108.5 45q66 0 109.5 -45t43.5 -108v-1331q0 -63 -44 -108.5t-109 -45.5q-63 0 -108.5 45t-45.5 109z" />
<glyph unicode="J" horiz-adv-x="1058" d="M0 154q0 63 45 108t109 45h176q70 0 131 18.5t107 49.5t74 72.5t28 89.5v948q0 63 45 108t108 45t108.5 -45t45.5 -108v-948q0 -111 -51.5 -208.5t-139.5 -171t-205.5 -115.5t-250.5 -42h-176q-63 0 -108.5 45t-45.5 109z" />
<glyph unicode="K" horiz-adv-x="1331" d="M0 154v1331q0 63 45 108t109 45q66 0 110.5 -45t44.5 -108v-393l553 489q43 37 100 37h12q64 -4 105 -51q39 -43 39 -101v-10q-4 -64 -51 -106l-535 -471l664 -586q49 -43 53 -107v-11q0 -58 -39 -101q-23 -27 -53.5 -39t-62.5 -12q-27 0 -52.5 9t-48.5 29l-684 603v-510 q0 -63 -45 -108.5t-110 -45.5q-63 0 -108.5 45t-45.5 109z" />
<glyph unicode="L" horiz-adv-x="1335" d="M0 154q0 18 2 26q-2 6 -2 13.5v13.5v1276q0 66 45 110.5t111 44.5q63 0 108 -45t45 -110v-1174h791q63 0 108 -45t45 -110q0 -63 -45 -108.5t-108 -45.5h-944q-66 0 -111 45t-45 109z" />
<glyph unicode="M" horiz-adv-x="1929" d="M0 154v1331q0 63 45 108t109 45h8h8q39 0 74 -17q39 -19 61 -60l619 -1074l618 1074q24 41 62 60q35 17 74 17h8h8q63 0 108 -45t45 -108v-1331q0 -63 -45 -108.5t-108 -45.5q-66 0 -111 45t-45 109v782l-481 -836q-4 -4 -5 -8t-5 -8l-3 -2q-4 -4 -5 -6t-5 -6l-4 -4 q-4 -2 -5 -4.5t-5 -4.5l-4 -4q-4 -2 -7 -4t-8 -4q-6 -4 -14 -8q-2 0 -4 -2q-4 0 -6 -2q-23 -8 -53 -8q-29 0 -52 8q-2 0 -3 1t-3 1t-4 2q-10 2 -14 8h-2q-4 2 -7 4t-8 4l-4 4q-6 6 -10 9l-4 4t-5 6t-5 6l-2 2q-4 4 -5 8t-5 8l-482 836v-782q0 -63 -45 -108.5t-110 -45.5 q-63 0 -108.5 45t-45.5 109z" />
<glyph unicode="N" horiz-adv-x="1355" d="M0 154v1331q0 63 45 108t109 45h10h9q36 0 69 -14q37 -16 59 -51l666 -961v873q0 63 44 108t109 45q66 0 110 -45t44 -108v-1331q0 -63 -44 -108.5t-110 -45.5q-37 0 -69 16q-53 12 -93 62l-649 940v-864q0 -63 -44.5 -108.5t-110.5 -45.5q-63 0 -108.5 45t-45.5 109z " />
<glyph unicode="O" horiz-adv-x="1630" d="M0 537v565q0 111 51 208t139.5 170.5t206 115.5t250.5 42h246h4h4q133 0 251 -42t206 -115.5t139 -171t51 -207.5v-565q0 -111 -51 -208.5t-139 -171t-206 -115.5t-251 -42h-4h-4h-246q-133 0 -250.5 42t-206 115.5t-139.5 171t-51 208.5zM307 537q0 -47 27.5 -89t74 -73 t108 -49.5t130.5 -18.5h246h4h4q70 0 131.5 18.5t107.5 49.5t73.5 72.5t27.5 89.5v565q0 47 -27.5 89t-73.5 72.5t-107.5 49t-131.5 18.5h-4h-4h-246q-70 0 -131 -18.5t-107.5 -49t-74 -72.5t-27.5 -89v-565z" />
<glyph unicode="P" horiz-adv-x="1435" d="M0 154v1331q0 63 45 108t109 45h688q106 0 199.5 -39.5t163 -109.5t109.5 -163.5t40 -199.5t-40 -200.5t-109.5 -164t-163 -109.5t-199.5 -40h-533v-458q0 -63 -45 -108.5t-110 -45.5q-63 0 -108.5 45t-45.5 109zM309 922h533q86 0 145.5 59t59.5 145q0 41 -16.5 78 t-44.5 64.5t-64.5 44t-79.5 16.5h-533v-407z" />
<glyph unicode="Q" horiz-adv-x="1646" d="M0 537v565q0 111 51 208t139.5 170.5t206 115.5t250.5 42h246h4h4q133 0 251 -42t206 -115.5t139 -171t51 -207.5v-565q0 -125 -65 -234l37 -37q45 -45 45 -107.5t-45 -109.5q-49 -45 -109 -45q-59 0 -108 45l-41 41q-78 -43 -169.5 -66.5t-191.5 -23.5h-4h-4h-246 q-133 0 -250.5 42t-206 115.5t-139.5 171t-51 208.5zM307 537q0 -47 27.5 -89t74 -73t108 -49.5t130.5 -18.5h246h4h4q66 0 127 17l-162 161q-45 47 -45 109.5t45 107.5q45 47 108 48h2q62 0 107 -48l158 -157v557q0 47 -27.5 89t-73.5 72.5t-107.5 49t-131.5 18.5h-4h-4 h-246q-70 0 -131 -18.5t-107.5 -49t-74 -72.5t-27.5 -89v-565z" />
<glyph unicode="R" horiz-adv-x="1435" d="M0 154v1331q0 63 45 108t109 45h688q106 0 199.5 -39.5t163 -109.5t109.5 -163t40 -200q0 -92 -31 -176t-85 -149.5t-129 -111.5t-161 -64l361 -361q47 -47 47 -109.5t-47 -109.5q-23 -23 -51.5 -34t-57.5 -11t-57.5 11.5t-50.5 33.5l-568 567h-215v-458 q0 -63 -44.5 -108.5t-110.5 -45.5q-63 0 -108.5 45t-45.5 109zM309 922h279h254q86 0 145.5 59t59.5 145t-59.5 144.5t-145.5 58.5h-533v-407z" />
<glyph unicode="S" horiz-adv-x="1472" d="M0 154q0 63 45 108t109 45h553q84 0 153.5 20.5t118.5 53.5t76.5 74t27.5 82q0 18 -3 37.5t-13 29.5q-16 16 -55 25.5t-87 12.5t-102.5 3t-101.5 -2q-53 -1 -108 -1h-54q-82 1 -161 13.5t-150.5 41t-126.5 83.5q-121 117 -121 322q0 109 54.5 206t148.5 170.5t218 116.5 t263 43h553q66 0 110 -45t44 -108t-44 -108.5t-110 -45.5h-553q-86 0 -155.5 -23.5t-119 -57t-76 -74.5t-26.5 -74q0 -74 29 -103q20 -20 62 -30.5t94 -15.5q44 -4 91 -4h19q57 1 111 1q53 1 106 1h53q78 -1 152 -12t139.5 -38t118.5 -78q109 -104 109 -286 q0 -113 -53.5 -211.5t-145.5 -170t-217 -113.5t-268 -42h-553q-63 0 -108.5 45t-45.5 109z" />
<glyph unicode="T" horiz-adv-x="1431" d="M0 1485q0 63 45 108t109 45h1042q66 0 110 -45t44 -108q0 -66 -44 -110t-110 -44h-367v-1177q0 -63 -45 -108.5t-108 -45.5q-66 0 -110 45t-44 109v1177h-368q-63 0 -108.5 44t-45.5 110z" />
<glyph unicode="U" d="M0 522v963q0 63 45 108t109 45q66 0 109.5 -45t43.5 -108v-963q0 -96 47 -147q27 -25 65 -39t78 -20.5t76.5 -7.5t61.5 -1h94q68 0 130.5 17.5t108.5 47t73.5 68.5t27.5 82v963q0 63 45 108t109 45q66 0 110.5 -45t44.5 -108v-963q0 -111 -50 -206t-138 -165.5 t-207 -110.5t-254 -40h-92h-23q-41 0 -99 4t-123.5 19.5t-131 47t-123.5 87.5q-137 137 -137 364z" />
<glyph unicode="V" d="M10 1427q-11 28 -11 57q0 31 13 61q25 59 84 83q29 11 57 11q31 -1 61 -13q58 -24 83 -84l391 -977l393 977q12 29 34 50.5t48.5 33.5t57 13t59.5 -11q59 -25 85 -83q13 -30 13 -60q0 -29 -12 -58l-535 -1331q-4 -6 -5 -10t-5 -8q0 -2 -1 -3t-1 -3q-4 -4 -5 -7.5t-5 -7.5 q-2 0 -2 -2l-7 -7l-7 -7l-2 -2q-10 -10 -17 -12q-12 -8 -18 -11q0 -2 -4 -2q-2 -2 -3 -2t-4 -2q-4 0 -5 -1t-5 -1q0 -2 -2 -2q-4 -2 -10 -2t-10 -2h-4q-6 -2 -21 -2q-12 0 -20 2h-4q-4 2 -9.5 2t-9.5 2q-2 0 -2 2q-4 0 -6 1t-6 1l-4 4q-4 0 -6 2q-10 2 -17 11q-10 4 -16 12 q-2 0 -2 1t-2 1l-15 14v2q-6 6 -10 15q-2 2 -2 3t-2 3l-4 8t-4 10z" />
<glyph unicode="W" horiz-adv-x="2529" d="M10 1427q-11 28 -11 57q0 31 13 61q25 59 84 83q29 11 57 11q31 -1 61 -13q58 -24 83 -84l391 -977l393 977v2q2 2 2 3t2 3q0 2 1 3t1 3q4 4 5 7l4 8l4 4q2 2 3 4t3 4l4 4q2 2 2 3t2 3q4 4 6 4l6 7q2 2 3 2t4 2q4 4 6 4q2 2 3 2t3 2t3 2t3 2t6 2q4 4 8 4v2h6l9 4q4 0 6 2 q6 0 8 2h8q4 0 6 2h9h6h8h8q2 -2 8 -2h6q2 -2 9 -2q2 -2 6 -2q4 -2 5 -2t5 -2h2l2 -2q2 0 10 -4l4 -2l9 -4l4 -4q2 -2 4 -2t4 -2l4 -4l6 -7l4 -4q4 -2 8 -6q0 -2 2 -4q2 -4 7 -8l4 -4q0 -4 4 -8q0 -2 4 -7q0 -2 1 -3t1 -3q2 -2 2 -3t2 -3v-2l393 -977l391 977q26 59 84 84 q30 13 61 13q28 0 56 -11q59 -25 84 -83q13 -30 13 -61q0 -28 -11 -57l-536 -1331q-2 -6 -4.5 -10t-4.5 -8q-2 -2 -2 -3t-2 -3q-4 -8 -10 -15v-2l-7 -7l-7 -7q-2 0 -2 -1t-2 -1q-6 -8 -17 -12q-8 -8 -16 -11q-2 -2 -6 -2l-4 -4q-4 0 -6.5 -1t-6.5 -1q0 -2 -2 -2q-4 -2 -9 -2 t-9 -2h-4q-8 -2 -21 -2q-14 0 -20 2h-4q-4 2 -10.5 2t-10.5 2l-2 2q-4 0 -6 1t-4 1q-2 2 -3 2t-3 2q-4 0 -4 2q-6 2 -19 11q-6 2 -16 12l-2 2l-7 7t-8 7l-2 2q-4 4 -5 8.5t-5 8.5l-2 4q-2 2 -10 18l-393 977l-392 -977q-4 -6 -5 -10t-5 -8q0 -2 -2 -4q-4 -4 -5 -8.5t-5 -8.5 q-2 0 -2 -2l-7 -7l-7 -7l-2 -2q-8 -8 -16.5 -13.5t-18.5 -9.5q-2 -2 -4 -2q-2 -2 -3 -2t-4 -2q-4 0 -5 -1t-5 -1q0 -2 -2 -2q-4 -2 -10 -2t-10 -2h-4q-6 -2 -21 -2q-12 0 -20 2h-4q-4 2 -9.5 2t-9.5 2q-2 0 -2 2q-4 0 -6 1t-6 1l-4 4q-4 0 -6 2q-10 2 -17 11q-10 4 -16 12 q-2 0 -2 1t-2 1l-15 14v2q-6 6 -10 15q-2 2 -2 3t-2 3l-4 8t-4 10z" />
<glyph unicode="X" d="M3 138q-1 10 -1 19q0 51 33 93l457 569l-457 570q-33 42 -33 93q0 8 1 18q7 62 54 104q41 35 93 35q10 1 20 -1q64 -8 104 -57l414 -516l416 516q42 49 104 57q10 1 19 1q51 0 94 -35q49 -42 56 -104q1 -9 1 -17q0 -52 -35 -94l-456 -570l456 -569q35 -42 35 -94 q0 -10 -1 -18q-7 -62 -56 -103q-23 -18 -47.5 -26.5t-48.5 -8.5q-35 0 -67 14.5t-54 42.5l-416 516l-414 -516q-23 -29 -54.5 -43t-65.5 -14q-55 0 -97 35q-47 41 -54 103z" />
<glyph unicode="Y" d="M3 1500q7 63 54 104q41 35 93 35q10 0 20 -1q63 -8 104 -57l414 -516l416 516q41 49 104 57q9 1 19 1q51 0 94 -35q49 -41 56 -104q1 -9 1 -17q0 -52 -35 -94l-501 -623v-612q0 -63 -44 -108.5t-110 -45.5q-63 0 -108 45t-45 109v612l-500 623q-33 42 -33 93q0 9 1 18z " />
<glyph unicode="Z" horiz-adv-x="1355" d="M0 1485q0 63 45 108t109 45h966q43 0 80 -22.5t57 -61.5q18 -35 18 -73q-1 -5 -1 -10q-2 -44 -29 -78l-788 -1084h663q66 0 110 -45t44 -110q0 -63 -44 -108.5t-110 -45.5h-966q-43 0 -80 22.5t-58 61.5q-15 32 -15 67q0 8 1 16q4 44 27 79l788 1083h-663 q-63 0 -108.5 45t-45.5 111z" />
<glyph unicode="[" horiz-adv-x="2048" />
<glyph unicode="\" horiz-adv-x="2048" />
<glyph unicode="]" horiz-adv-x="2048" />
<glyph unicode="^" horiz-adv-x="2048" />
<glyph unicode="_" horiz-adv-x="1396" d="M0 158q0 63 45 108t109 45h540h467q63 0 108.5 -45t45.5 -108q0 -66 -45 -110t-109 -44h-473h-534q-63 0 -108.5 44t-45.5 110z" />
<glyph unicode="`" horiz-adv-x="2048" />
<glyph unicode="a" horiz-adv-x="1435" d="M1 149.5q-1 30.5 9 59.5l525 1331q16 45 56 71.5t87 26.5t86 -26.5t55 -71.5l524 -1331q12 -29 11.5 -59.5t-13 -57t-34 -48t-52.5 -34.5q-31 -10 -55 -10q-47 0 -86 25.5t-57 72.5l-121 310h-518l-121 -310q-12 -31 -33.5 -52t-48.5 -32.5t-57.5 -12.5t-59.5 9 q-31 12 -52 34t-32.5 48.5t-12.5 57zM539 715h276l-137 350z" />
<glyph unicode="b" horiz-adv-x="1419" d="M0 152v1314q0 43 22.5 78t57.5 55q43 39 100 39h582q94 0 177 -36.5t144.5 -99t97.5 -147.5t36 -181q0 -74 -21.5 -140.5t-58.5 -124.5q92 -70 146 -174t54 -229q0 -104 -40 -196.5t-108.5 -161t-160.5 -108.5t-197 -40h-679q-63 0 -107.5 44t-44.5 108zM305 305h526 q84 0 142.5 58.5t58.5 142.5q0 86 -58.5 144.5t-142.5 58.5h-59h-10h-457v-404zM305 1014h465q59 0 100 47t41 113t-44 112.5t-105 46.5h-457v-319z" />
<glyph unicode="c" horiz-adv-x="1398" d="M0 537v565q0 111 51 208t139.5 170.5t206 115.5t250.5 42h516q63 0 108.5 -45t45.5 -108t-45 -108.5t-109 -45.5h-516q-70 0 -131 -18.5t-107.5 -49t-74 -72.5t-27.5 -89v-565q0 -47 27.5 -89t74 -73t108 -49.5t130.5 -18.5h516q63 0 108.5 -45t45.5 -108t-45 -108.5 t-109 -45.5h-516q-133 0 -250.5 42t-206 115.5t-139.5 171t-51 208.5z" />
<glyph unicode="d" horiz-adv-x="1398" d="M0 154v1331q0 63 45 108t109 45h516q133 0 250.5 -42t205.5 -115.5t139.5 -171t51.5 -207.5v-565q0 -111 -51.5 -208.5t-139.5 -171t-205.5 -115.5t-250.5 -42h-516q-63 0 -108.5 45t-45.5 109zM307 307h363q70 0 131 18.5t107 49.5t74 72.5t28 89.5v565q0 47 -28 89 t-74 72.5t-107.5 49t-130.5 18.5h-363v-1024z" />
<glyph unicode="e" horiz-adv-x="1318" d="M0 152v1314q0 43 22.5 78t57.5 55q43 39 100 39h903q63 0 108.5 -44t45.5 -107q0 -66 -45 -110t-109 -44h-778v-319h778q63 0 108.5 -45t45.5 -109q0 -63 -45 -107t-109 -44h-59h-10h-709v-404h778q63 0 108.5 -44t45.5 -109q0 -63 -45 -107.5t-109 -44.5h-931 q-63 0 -107.5 44t-44.5 108z" />
<glyph unicode="f" horiz-adv-x="1318" d="M0 152v1314q0 43 22.5 78t57.5 55q43 39 100 39h903q63 0 108.5 -44t45.5 -107q0 -66 -45 -110t-109 -44h-778v-319h778q63 0 108.5 -45.5t45.5 -108.5t-45 -107t-109 -44h-778v-557q0 -63 -44 -107.5t-109 -44.5q-63 0 -107.5 44t-44.5 108z" />
<glyph unicode="g" horiz-adv-x="1398" d="M0 537v565q0 111 51 208t139.5 170.5t206 115.5t250.5 42h516q63 0 108.5 -45t45.5 -108t-45 -108.5t-109 -45.5h-516q-70 0 -131 -18.5t-107.5 -49t-74 -72.5t-27.5 -89v-565q0 -47 27.5 -89t74 -73t108 -49.5t130.5 -18.5h363v283h-224q-66 0 -109.5 44t-43.5 109 q0 63 44 108.5t109 45.5h377q63 0 108.5 -45t45.5 -109v-589q0 -63 -45 -108.5t-109 -45.5h-516q-133 0 -250.5 42t-206 115.5t-139.5 171t-51 208.5z" />
<glyph unicode="h" horiz-adv-x="1406" d="M0 154v1331q0 63 45 108t109 45q66 0 110.5 -45t44.5 -108v-459h707v459q0 63 44 108t109 45q66 0 111 -45t45 -108v-1331q0 -63 -45 -108.5t-111 -45.5t-109.5 45t-43.5 109v563h-707v-563q0 -63 -45 -108.5t-110 -45.5q-63 0 -108.5 45t-45.5 109z" />
<glyph unicode="i" horiz-adv-x="389" d="M0 154v1331q0 63 45.5 108t108.5 45q66 0 109.5 -45t43.5 -108v-1331q0 -63 -44 -108.5t-109 -45.5q-63 0 -108.5 45t-45.5 109z" />
<glyph unicode="j" horiz-adv-x="1058" d="M0 154q0 63 45 108t109 45h176q70 0 131 18.5t107 49.5t74 72.5t28 89.5v948q0 63 45 108t108 45t108.5 -45t45.5 -108v-948q0 -111 -51.5 -208.5t-139.5 -171t-205.5 -115.5t-250.5 -42h-176q-63 0 -108.5 45t-45.5 109z" />
<glyph unicode="k" horiz-adv-x="1331" d="M0 154v1331q0 63 45 108t109 45q66 0 110.5 -45t44.5 -108v-393l553 489q43 37 100 37h12q64 -4 105 -51q39 -43 39 -101v-10q-4 -64 -51 -106l-535 -471l664 -586q49 -43 53 -107v-11q0 -58 -39 -101q-23 -27 -53.5 -39t-62.5 -12q-27 0 -52.5 9t-48.5 29l-684 603v-510 q0 -63 -45 -108.5t-110 -45.5q-63 0 -108.5 45t-45.5 109z" />
<glyph unicode="l" horiz-adv-x="1335" d="M0 154q0 18 2 26q-2 6 -2 13.5v13.5v1276q0 66 45 110.5t111 44.5q63 0 108 -45t45 -110v-1174h791q63 0 108 -45t45 -110q0 -63 -45 -108.5t-108 -45.5h-944q-66 0 -111 45t-45 109z" />
<glyph unicode="m" horiz-adv-x="1929" d="M0 154v1331q0 63 45 108t109 45h8h8q39 0 74 -17q39 -19 61 -60l619 -1074l618 1074q24 41 62 60q35 17 74 17h8h8q63 0 108 -45t45 -108v-1331q0 -63 -45 -108.5t-108 -45.5q-66 0 -111 45t-45 109v782l-481 -836q-4 -4 -5 -8t-5 -8l-3 -2q-4 -4 -5 -6t-5 -6l-4 -4 q-4 -2 -5 -4.5t-5 -4.5l-4 -4q-4 -2 -7 -4t-8 -4q-6 -4 -14 -8q-2 0 -4 -2q-4 0 -6 -2q-23 -8 -53 -8q-29 0 -52 8q-2 0 -3 1t-3 1t-4 2q-10 2 -14 8h-2q-4 2 -7 4t-8 4l-4 4q-6 6 -10 9l-4 4t-5 6t-5 6l-2 2q-4 4 -5 8t-5 8l-482 836v-782q0 -63 -45 -108.5t-110 -45.5 q-63 0 -108.5 45t-45.5 109z" />
<glyph unicode="n" horiz-adv-x="1355" d="M0 154v1331q0 63 45 108t109 45h10h9q36 0 69 -14q37 -16 59 -51l666 -961v873q0 63 44 108t109 45q66 0 110 -45t44 -108v-1331q0 -63 -44 -108.5t-110 -45.5q-37 0 -69 16q-53 12 -93 62l-649 940v-864q0 -63 -44.5 -108.5t-110.5 -45.5q-63 0 -108.5 45t-45.5 109z " />
<glyph unicode="o" horiz-adv-x="1630" d="M0 537v565q0 111 51 208t139.5 170.5t206 115.5t250.5 42h246h4h4q133 0 251 -42t206 -115.5t139 -171t51 -207.5v-565q0 -111 -51 -208.5t-139 -171t-206 -115.5t-251 -42h-4h-4h-246q-133 0 -250.5 42t-206 115.5t-139.5 171t-51 208.5zM307 537q0 -47 27.5 -89t74 -73 t108 -49.5t130.5 -18.5h246h4h4q70 0 131.5 18.5t107.5 49.5t73.5 72.5t27.5 89.5v565q0 47 -27.5 89t-73.5 72.5t-107.5 49t-131.5 18.5h-4h-4h-246q-70 0 -131 -18.5t-107.5 -49t-74 -72.5t-27.5 -89v-565z" />
<glyph unicode="p" horiz-adv-x="1435" d="M0 154v1331q0 63 45 108t109 45h688q106 0 199.5 -39.5t163 -109.5t109.5 -163.5t40 -199.5t-40 -200.5t-109.5 -164t-163 -109.5t-199.5 -40h-533v-458q0 -63 -45 -108.5t-110 -45.5q-63 0 -108.5 45t-45.5 109zM309 922h533q86 0 145.5 59t59.5 145q0 41 -16.5 78 t-44.5 64.5t-64.5 44t-79.5 16.5h-533v-407z" />
<glyph unicode="q" horiz-adv-x="1646" d="M0 537v565q0 111 51 208t139.5 170.5t206 115.5t250.5 42h246h4h4q133 0 251 -42t206 -115.5t139 -171t51 -207.5v-565q0 -125 -65 -234l37 -37q45 -45 45 -107.5t-45 -109.5q-49 -45 -109 -45q-59 0 -108 45l-41 41q-78 -43 -169.5 -66.5t-191.5 -23.5h-4h-4h-246 q-133 0 -250.5 42t-206 115.5t-139.5 171t-51 208.5zM307 537q0 -47 27.5 -89t74 -73t108 -49.5t130.5 -18.5h246h4h4q66 0 127 17l-162 161q-45 47 -45 109.5t45 107.5q45 47 108 48h2q62 0 107 -48l158 -157v557q0 47 -27.5 89t-73.5 72.5t-107.5 49t-131.5 18.5h-4h-4 h-246q-70 0 -131 -18.5t-107.5 -49t-74 -72.5t-27.5 -89v-565z" />
<glyph unicode="r" horiz-adv-x="1435" d="M0 154v1331q0 63 45 108t109 45h688q106 0 199.5 -39.5t163 -109.5t109.5 -163t40 -200q0 -92 -31 -176t-85 -149.5t-129 -111.5t-161 -64l361 -361q47 -47 47 -109.5t-47 -109.5q-23 -23 -51.5 -34t-57.5 -11t-57.5 11.5t-50.5 33.5l-568 567h-215v-458 q0 -63 -44.5 -108.5t-110.5 -45.5q-63 0 -108.5 45t-45.5 109zM309 922h279h254q86 0 145.5 59t59.5 145t-59.5 144.5t-145.5 58.5h-533v-407z" />
<glyph unicode="s" horiz-adv-x="1472" d="M0 154q0 63 45 108t109 45h553q84 0 153.5 20.5t118.5 53.5t76.5 74t27.5 82q0 18 -3 37.5t-13 29.5q-16 16 -55 25.5t-87 12.5t-102.5 3t-101.5 -2q-53 -1 -108 -1h-54q-82 1 -161 13.5t-150.5 41t-126.5 83.5q-121 117 -121 322q0 109 54.5 206t148.5 170.5t218 116.5 t263 43h553q66 0 110 -45t44 -108t-44 -108.5t-110 -45.5h-553q-86 0 -155.5 -23.5t-119 -57t-76 -74.5t-26.5 -74q0 -74 29 -103q20 -20 62 -30.5t94 -15.5q44 -4 91 -4h19q57 1 111 1q53 1 106 1h53q78 -1 152 -12t139.5 -38t118.5 -78q109 -104 109 -286 q0 -113 -53.5 -211.5t-145.5 -170t-217 -113.5t-268 -42h-553q-63 0 -108.5 45t-45.5 109z" />
<glyph unicode="t" horiz-adv-x="1431" d="M0 1485q0 63 45 108t109 45h1042q66 0 110 -45t44 -108q0 -66 -44 -110t-110 -44h-367v-1177q0 -63 -45 -108.5t-108 -45.5q-66 0 -110 45t-44 109v1177h-368q-63 0 -108.5 44t-45.5 110z" />
<glyph unicode="u" d="M0 522v963q0 63 45 108t109 45q66 0 109.5 -45t43.5 -108v-963q0 -96 47 -147q27 -25 65 -39t78 -20.5t76.5 -7.5t61.5 -1h94q68 0 130.5 17.5t108.5 47t73.5 68.5t27.5 82v963q0 63 45 108t109 45q66 0 110.5 -45t44.5 -108v-963q0 -111 -50 -206t-138 -165.5 t-207 -110.5t-254 -40h-92h-23q-41 0 -99 4t-123.5 19.5t-131 47t-123.5 87.5q-137 137 -137 364z" />
<glyph unicode="v" d="M10 1427q-11 28 -11 57q0 31 13 61q25 59 84 83q29 11 57 11q31 -1 61 -13q58 -24 83 -84l391 -977l393 977q12 29 34 50.5t48.5 33.5t57 13t59.5 -11q59 -25 85 -83q13 -30 13 -60q0 -29 -12 -58l-535 -1331q-4 -6 -5 -10t-5 -8q0 -2 -1 -3t-1 -3q-4 -4 -5 -7.5t-5 -7.5 q-2 0 -2 -2l-7 -7l-7 -7l-2 -2q-10 -10 -17 -12q-12 -8 -18 -11q0 -2 -4 -2q-2 -2 -3 -2t-4 -2q-4 0 -5 -1t-5 -1q0 -2 -2 -2q-4 -2 -10 -2t-10 -2h-4q-6 -2 -21 -2q-12 0 -20 2h-4q-4 2 -9.5 2t-9.5 2q-2 0 -2 2q-4 0 -6 1t-6 1l-4 4q-4 0 -6 2q-10 2 -17 11q-10 4 -16 12 q-2 0 -2 1t-2 1l-15 14v2q-6 6 -10 15q-2 2 -2 3t-2 3l-4 8t-4 10z" />
<glyph unicode="w" horiz-adv-x="2529" d="M10 1427q-11 28 -11 57q0 31 13 61q25 59 84 83q29 11 57 11q31 -1 61 -13q58 -24 83 -84l391 -977l393 977v2q2 2 2 3t2 3q0 2 1 3t1 3q4 4 5 7l4 8l4 4q2 2 3 4t3 4l4 4q2 2 2 3t2 3q4 4 6 4l6 7q2 2 3 2t4 2q4 4 6 4q2 2 3 2t3 2t3 2t3 2t6 2q4 4 8 4v2h6l9 4q4 0 6 2 q6 0 8 2h8q4 0 6 2h9h6h8h8q2 -2 8 -2h6q2 -2 9 -2q2 -2 6 -2q4 -2 5 -2t5 -2h2l2 -2q2 0 10 -4l4 -2l9 -4l4 -4q2 -2 4 -2t4 -2l4 -4l6 -7l4 -4q4 -2 8 -6q0 -2 2 -4q2 -4 7 -8l4 -4q0 -4 4 -8q0 -2 4 -7q0 -2 1 -3t1 -3q2 -2 2 -3t2 -3v-2l393 -977l391 977q26 59 84 84 q30 13 61 13q28 0 56 -11q59 -25 84 -83q13 -30 13 -61q0 -28 -11 -57l-536 -1331q-2 -6 -4.5 -10t-4.5 -8q-2 -2 -2 -3t-2 -3q-4 -8 -10 -15v-2l-7 -7l-7 -7q-2 0 -2 -1t-2 -1q-6 -8 -17 -12q-8 -8 -16 -11q-2 -2 -6 -2l-4 -4q-4 0 -6.5 -1t-6.5 -1q0 -2 -2 -2q-4 -2 -9 -2 t-9 -2h-4q-8 -2 -21 -2q-14 0 -20 2h-4q-4 2 -10.5 2t-10.5 2l-2 2q-4 0 -6 1t-4 1q-2 2 -3 2t-3 2q-4 0 -4 2q-6 2 -19 11q-6 2 -16 12l-2 2l-7 7t-8 7l-2 2q-4 4 -5 8.5t-5 8.5l-2 4q-2 2 -10 18l-393 977l-392 -977q-4 -6 -5 -10t-5 -8q0 -2 -2 -4q-4 -4 -5 -8.5t-5 -8.5 q-2 0 -2 -2l-7 -7l-7 -7l-2 -2q-8 -8 -16.5 -13.5t-18.5 -9.5q-2 -2 -4 -2q-2 -2 -3 -2t-4 -2q-4 0 -5 -1t-5 -1q0 -2 -2 -2q-4 -2 -10 -2t-10 -2h-4q-6 -2 -21 -2q-12 0 -20 2h-4q-4 2 -9.5 2t-9.5 2q-2 0 -2 2q-4 0 -6 1t-6 1l-4 4q-4 0 -6 2q-10 2 -17 11q-10 4 -16 12 q-2 0 -2 1t-2 1l-15 14v2q-6 6 -10 15q-2 2 -2 3t-2 3l-4 8t-4 10z" />
<glyph unicode="x" d="M3 138q-1 10 -1 19q0 51 33 93l457 569l-457 570q-33 42 -33 93q0 8 1 18q7 62 54 104q41 35 93 35q10 1 20 -1q64 -8 104 -57l414 -516l416 516q42 49 104 57q10 1 19 1q51 0 94 -35q49 -42 56 -104q1 -9 1 -17q0 -52 -35 -94l-456 -570l456 -569q35 -42 35 -94 q0 -10 -1 -18q-7 -62 -56 -103q-23 -18 -47.5 -26.5t-48.5 -8.5q-35 0 -67 14.5t-54 42.5l-416 516l-414 -516q-23 -29 -54.5 -43t-65.5 -14q-55 0 -97 35q-47 41 -54 103z" />
<glyph unicode="y" d="M3 1500q7 63 54 104q41 35 93 35q10 0 20 -1q63 -8 104 -57l414 -516l416 516q41 49 104 57q9 1 19 1q51 0 94 -35q49 -41 56 -104q1 -9 1 -17q0 -52 -35 -94l-501 -623v-612q0 -63 -44 -108.5t-110 -45.5q-63 0 -108 45t-45 109v612l-500 623q-33 42 -33 93q0 9 1 18z " />
<glyph unicode="z" horiz-adv-x="1355" d="M0 1485q0 63 45 108t109 45h966q43 0 80 -22.5t57 -61.5q18 -35 18 -73q-1 -5 -1 -10q-2 -44 -29 -78l-788 -1084h663q66 0 110 -45t44 -110q0 -63 -44 -108.5t-110 -45.5h-966q-43 0 -80 22.5t-58 61.5q-15 32 -15 67q0 8 1 16q4 44 27 79l788 1083h-663 q-63 0 -108.5 45t-45.5 111z" />
<glyph unicode="{" horiz-adv-x="2048" />
<glyph unicode="}" horiz-adv-x="2048" />
<glyph unicode="~" horiz-adv-x="2048" />
<glyph unicode="&#xad;" horiz-adv-x="1396" d="M0 858q0 66 45 110t109 44h540h467q63 0 108.5 -44t45.5 -110q0 -63 -45 -108t-109 -45h-473h-534q-63 0 -108.5 45t-45.5 108z" />
<glyph unicode="&#x2000;" horiz-adv-x="971" />
<glyph unicode="&#x2001;" horiz-adv-x="1943" />
<glyph unicode="&#x2002;" horiz-adv-x="971" />
<glyph unicode="&#x2003;" horiz-adv-x="1943" />
<glyph unicode="&#x2004;" horiz-adv-x="647" />
<glyph unicode="&#x2005;" horiz-adv-x="485" />
<glyph unicode="&#x2006;" horiz-adv-x="323" />
<glyph unicode="&#x2007;" horiz-adv-x="323" />
<glyph unicode="&#x2008;" horiz-adv-x="242" />
<glyph unicode="&#x2009;" horiz-adv-x="388" />
<glyph unicode="&#x200a;" horiz-adv-x="107" />
<glyph unicode="&#x2010;" horiz-adv-x="1396" d="M0 858q0 66 45 110t109 44h540h467q63 0 108.5 -44t45.5 -110q0 -63 -45 -108t-109 -45h-473h-534q-63 0 -108.5 45t-45.5 108z" />
<glyph unicode="&#x2011;" horiz-adv-x="1396" d="M0 858q0 66 45 110t109 44h540h467q63 0 108.5 -44t45.5 -110q0 -63 -45 -108t-109 -45h-473h-534q-63 0 -108.5 45t-45.5 108z" />
<glyph unicode="&#x2012;" horiz-adv-x="1396" d="M0 858q0 66 45 110t109 44h540h467q63 0 108.5 -44t45.5 -110q0 -63 -45 -108t-109 -45h-473h-534q-63 0 -108.5 45t-45.5 108z" />
<glyph unicode="&#x2013;" horiz-adv-x="1105" d="M0 858q0 66 35 110t85 44h420h364q49 0 84.5 -44t35.5 -110q0 -63 -35 -108t-85 -45h-368h-416q-49 0 -84.5 45t-35.5 108z" />
<glyph unicode="&#x2014;" horiz-adv-x="2129" d="M0 858q0 66 70 110t170 44h841h727q98 0 169 -44t71 -110q0 -63 -70 -108t-170 -45h-736h-832q-98 0 -169 45t-71 108z" />
<glyph unicode="&#x202f;" horiz-adv-x="388" />
<glyph unicode="&#x205f;" horiz-adv-x="485" />
<glyph unicode="&#x25fc;" horiz-adv-x="1638" d="M0 0v1638h1638v-1638h-1638z" />
</font>
</defs>
</svg>
